<svg xmlns="http://www.w3.org/2000/svg" width="175.5" height="17" fill="none" viewBox="0 0 351 34"><path fill="url(#a)" d="M0 16.634c0-1.849.376-3.463 1.13-4.844.774-1.38 1.838-2.443 3.193-3.186C5.7 7.86 7.27 7.488 9.033 7.488c2.26 0 4.141.584 5.647 1.753 1.527 1.168 2.527 2.815 3 4.939H11.81c-.495-1.36-1.452-2.04-2.872-2.04-1.01 0-1.817.394-2.42 1.18-.602.764-.903 1.869-.903 3.314 0 1.444.301 2.56.903 3.345.603.765 1.41 1.148 2.42 1.148 1.42 0 2.377-.68 2.872-2.04h5.872c-.474 2.082-1.474 3.718-3 4.907-1.528 1.19-3.41 1.785-5.647 1.785-1.764 0-3.334-.372-4.71-1.116-1.356-.743-2.42-1.805-3.195-3.186C.376 20.097 0 18.482 0 16.634Z"/><path fill="url(#b)" d="M28.827 25.779c-1.764 0-3.356-.372-4.775-1.116a8.358 8.358 0 0 1-3.323-3.186c-.796-1.38-1.194-2.995-1.194-4.843 0-1.827.409-3.431 1.226-4.812a8.245 8.245 0 0 1 3.355-3.218c1.42-.744 3.012-1.116 4.775-1.116 1.764 0 3.356.372 4.775 1.116a8.245 8.245 0 0 1 3.356 3.218c.817 1.38 1.226 2.985 1.226 4.812 0 1.826-.42 3.441-1.258 4.843a8.253 8.253 0 0 1-3.388 3.186c-1.42.744-3.011 1.116-4.775 1.116Zm0-4.716c1.054 0 1.946-.383 2.678-1.147.753-.765 1.129-1.86 1.129-3.282 0-1.424-.366-2.518-1.097-3.283-.71-.764-1.592-1.147-2.646-1.147-1.075 0-1.968.383-2.678 1.147-.71.744-1.064 1.838-1.064 3.283 0 1.423.344 2.517 1.032 3.282.71.764 1.592 1.147 2.646 1.147Z"/><path fill="url(#c)" d="M52.145 7.552c2.107 0 3.785.68 5.033 2.04 1.269 1.338 1.903 3.186 1.903 5.544v10.388h-5.485v-9.655c0-1.19-.311-2.114-.935-2.772-.624-.659-1.463-.988-2.517-.988-1.054 0-1.893.329-2.516.988-.624.658-.936 1.582-.936 2.772v9.655h-5.517V7.744h5.517V10.1c.56-.786 1.312-1.402 2.258-1.848.947-.467 2.012-.701 3.195-.701Z"/><path fill="url(#d)" d="M72.95 20.904v4.62h-2.808c-2 0-3.56-.478-4.678-1.434-1.118-.977-1.678-2.56-1.678-4.748v-7.074h-2.194V7.743h2.194V3.41h5.517v4.333h3.614v4.525h-3.614v7.138c0 .53.13.913.388 1.147.258.234.688.35 1.29.35h1.968Z"/><path fill="url(#e)" d="M74.925 16.602c0-1.827.345-3.431 1.033-4.812.71-1.38 1.667-2.443 2.871-3.186 1.205-.744 2.55-1.116 4.033-1.116 1.27 0 2.377.255 3.324.765.967.51 1.71 1.18 2.226 2.008V7.743h5.517v17.78h-5.517v-2.516c-.538.828-1.29 1.497-2.259 2.007-.946.51-2.054.765-3.323.765-1.462 0-2.796-.372-4-1.116-1.205-.764-2.162-1.837-2.872-3.218-.688-1.402-1.032-3.016-1.032-4.843Zm13.487.032c0-1.36-.387-2.433-1.162-3.219-.752-.786-1.677-1.179-2.774-1.179s-2.033.393-2.807 1.18c-.753.764-1.13 1.826-1.13 3.186 0 1.36.377 2.443 1.13 3.25.774.786 1.71 1.179 2.807 1.179s2.022-.393 2.774-1.18c.775-.785 1.162-1.858 1.162-3.217Z"/><path fill="url(#f)" d="M96.823 16.634c0-1.849.377-3.463 1.13-4.844.774-1.38 1.839-2.443 3.194-3.186 1.376-.744 2.946-1.116 4.71-1.116 2.259 0 4.141.584 5.646 1.753 1.528 1.168 2.528 2.815 3.001 4.939h-5.872c-.495-1.36-1.452-2.04-2.872-2.04-1.01 0-1.817.394-2.419 1.18-.603.764-.904 1.869-.904 3.314 0 1.444.301 2.56.904 3.345.602.765 1.409 1.148 2.419 1.148 1.42 0 2.377-.68 2.872-2.04h5.872c-.473 2.082-1.473 3.718-3.001 4.907-1.527 1.19-3.409 1.785-5.646 1.785-1.764 0-3.334-.372-4.71-1.116-1.355-.743-2.42-1.805-3.194-3.186-.753-1.38-1.13-2.995-1.13-4.843Z"/><path fill="url(#g)" d="M127.489 20.904v4.62h-2.807c-2 0-3.56-.478-4.678-1.434-1.119-.977-1.678-2.56-1.678-4.748v-7.074h-2.194V7.743h2.194V3.41h5.517v4.333h3.614v4.525h-3.614v7.138c0 .53.129.913.388 1.147.258.234.688.35 1.29.35h1.968Z"/><path fill="url(#h)" d="M148.501 4.238c2.538 0 4.754.478 6.646 1.434 1.893.935 3.345 2.262 4.356 3.983 1.033 1.7 1.549 3.665 1.549 5.895 0 1.806-.323 3.484-.968 5.035-.624 1.55-1.56 2.793-2.807 3.728-1.226.914-2.689 1.37-4.388 1.37-1.14 0-2.086-.223-2.839-.669a3.321 3.321 0 0 1-1.484-1.88 6.246 6.246 0 0 1-2.323 1.944c-.947.446-1.979.669-3.098.669-1.591 0-2.85-.467-3.775-1.402-.903-.956-1.355-2.252-1.355-3.888 0-1.55.323-3.006.968-4.365.646-1.381 1.538-2.486 2.678-3.314a6.374 6.374 0 0 1 3.84-1.243c1.806 0 3.032.637 3.678 1.912l.29-1.689h4.452l-1.419 7.998a6.156 6.156 0 0 0-.097 1.02c0 .935.419 1.402 1.258 1.402 1.033 0 1.818-.648 2.356-1.944.559-1.317.838-2.825.838-4.525 0-2.442-.785-4.354-2.355-5.735-1.548-1.381-3.732-2.071-6.549-2.071-2.409 0-4.603.573-6.582 1.72a12.377 12.377 0 0 0-4.614 4.716c-1.118 1.976-1.678 4.153-1.678 6.533 0 2.57.753 4.567 2.259 5.99 1.527 1.424 3.656 2.135 6.388 2.135 2.129 0 4.033-.382 5.711-1.147l.871 3.473c-2.108.914-4.474 1.37-7.098 1.37-2.452 0-4.614-.467-6.485-1.401-1.85-.935-3.28-2.263-4.291-3.984-1.011-1.72-1.517-3.728-1.517-6.022 0-3.208.764-6.108 2.291-8.7 1.527-2.612 3.624-4.652 6.291-6.117 2.689-1.487 5.69-2.231 9.002-2.231Zm-3.549 17.59c.602 0 1.162-.181 1.678-.542.538-.361.957-.84 1.258-1.434a4.192 4.192 0 0 0 .484-1.976c0-.722-.204-1.306-.613-1.752-.409-.468-.968-.701-1.678-.701-.946 0-1.731.403-2.355 1.21-.624.808-.936 1.764-.936 2.868 0 .701.183 1.264.549 1.69.366.424.903.637 1.613.637Z"/><path fill="url(#i)" d="M172.734 25.779c-1.57 0-2.968-.266-4.194-.797-1.226-.53-2.194-1.253-2.904-2.167a5.78 5.78 0 0 1-1.194-3.122h5.453c.064.616.355 1.115.871 1.497.516.383 1.151.574 1.903.574.689 0 1.216-.128 1.581-.383.387-.276.581-.626.581-1.051 0-.51-.269-.882-.807-1.115-.537-.255-1.408-.532-2.613-.829-1.291-.297-2.366-.605-3.226-.924a5.792 5.792 0 0 1-2.227-1.561c-.623-.723-.935-1.69-.935-2.9 0-1.02.279-1.944.839-2.772.58-.85 1.419-1.52 2.516-2.008 1.119-.488 2.442-.733 3.969-.733 2.258 0 4.033.553 5.323 1.657 1.312 1.105 2.065 2.57 2.259 4.398h-5.098c-.086-.616-.366-1.105-.839-1.466-.452-.361-1.054-.542-1.807-.542-.645 0-1.14.128-1.484.383-.344.233-.516.563-.516.987 0 .51.269.893.807 1.148.559.254 1.419.51 2.581.764 1.333.34 2.42.68 3.258 1.02.839.319 1.571.85 2.194 1.593.646.723.979 1.7 1.001 2.932 0 1.04-.302 1.975-.904 2.804-.581.807-1.43 1.444-2.549 1.912-1.097.467-2.377.7-3.839.7Z"/><path fill="url(#j)" d="m194.403 25.524-5.485-7.457v7.457h-5.517V1.944h5.517v13.033l5.453-7.234h6.807l-7.485 8.922 7.55 8.859h-6.84Z"/><path fill="url(#k)" d="M208.862 10.707c.646-.978 1.452-1.742 2.42-2.295.968-.573 2.044-.86 3.227-.86v5.768h-1.517c-1.376 0-2.409.297-3.097.892-.688.573-1.033 1.593-1.033 3.059v8.253h-5.517V7.744h5.517v2.963Z"/><path fill="url(#l)" d="M219.92 5.895c-.968 0-1.763-.276-2.387-.828a2.794 2.794 0 0 1-.904-2.104c0-.85.302-1.55.904-2.103.624-.573 1.419-.86 2.387-.86.947 0 1.721.287 2.323.86.624.553.936 1.254.936 2.103 0 .829-.312 1.53-.936 2.104-.602.552-1.376.828-2.323.828Zm2.743 1.848v17.78h-5.517V7.744h5.517Z"/><path fill="url(#m)" d="M232.178 10.26c.538-.828 1.28-1.497 2.226-2.007.947-.51 2.055-.765 3.324-.765 1.484 0 2.828.372 4.033 1.116 1.204.743 2.15 1.805 2.839 3.186.71 1.38 1.064 2.985 1.064 4.812 0 1.827-.354 3.441-1.064 4.843-.689 1.381-1.635 2.454-2.839 3.218-1.205.744-2.549 1.116-4.033 1.116-1.248 0-2.356-.255-3.324-.765-.946-.51-1.688-1.168-2.226-1.976V34h-5.517V7.743h5.517v2.518Zm7.873 6.342c0-1.36-.388-2.422-1.162-3.187-.753-.786-1.688-1.179-2.807-1.179-1.097 0-2.033.393-2.807 1.18-.753.785-1.129 1.858-1.129 3.218 0 1.36.376 2.432 1.129 3.218.774.786 1.71 1.179 2.807 1.179s2.033-.393 2.807-1.18c.774-.806 1.162-1.89 1.162-3.25Z"/><path fill="url(#n)" d="M265.53 16.347c0 .51-.033 1.04-.097 1.593h-12.486c.086 1.105.441 1.954 1.065 2.55.645.573 1.43.86 2.355.86 1.376 0 2.334-.574 2.871-1.721h5.872a7.816 7.816 0 0 1-1.645 3.154c-.774.935-1.753 1.668-2.936 2.2-1.183.53-2.506.796-3.969.796-1.763 0-3.334-.372-4.71-1.116a7.986 7.986 0 0 1-3.227-3.186c-.774-1.38-1.161-2.995-1.161-4.843 0-1.849.376-3.463 1.129-4.844a7.986 7.986 0 0 1 3.227-3.186c1.376-.744 2.957-1.116 4.742-1.116 1.743 0 3.291.361 4.646 1.084a7.728 7.728 0 0 1 3.162 3.09c.775 1.339 1.162 2.9 1.162 4.685Zm-5.646-1.434c0-.935-.323-1.678-.968-2.23-.646-.553-1.452-.83-2.42-.83-.925 0-1.71.266-2.355.797-.624.531-1.011 1.286-1.162 2.263h6.905Z"/><path fill="url(#o)" d="M273.957 10.707c.646-.978 1.452-1.742 2.42-2.295.968-.573 2.044-.86 3.227-.86v5.768h-1.517c-1.376 0-2.409.297-3.097.892-.688.573-1.033 1.593-1.033 3.059v8.253h-5.517V7.744h5.517v2.963Z"/><path fill="url(#p)" d="M284.822 25.779c-.968 0-1.764-.276-2.388-.829a2.793 2.793 0 0 1-.903-2.103c0-.85.301-1.561.903-2.135.624-.573 1.42-.86 2.388-.86.946 0 1.721.287 2.323.86.624.574.935 1.285.935 2.135 0 .829-.311 1.53-.935 2.103-.602.553-1.377.829-2.323.829Z"/><path fill="url(#q)" d="M290.249 16.602c0-1.827.345-3.431 1.033-4.812.71-1.38 1.667-2.443 2.871-3.186 1.205-.744 2.549-1.116 4.033-1.116 1.183 0 2.259.245 3.227.733.989.489 1.764 1.147 2.323 1.976V1.944h5.517v23.58h-5.517v-2.55c-.516.85-1.258 1.53-2.226 2.04-.947.51-2.055.765-3.324.765-1.484 0-2.828-.372-4.033-1.116-1.204-.764-2.161-1.837-2.871-3.218-.688-1.402-1.033-3.016-1.033-4.843Zm13.487.032c0-1.36-.387-2.433-1.162-3.219-.753-.786-1.677-1.179-2.774-1.179s-2.033.393-2.807 1.18c-.753.764-1.13 1.826-1.13 3.186 0 1.36.377 2.443 1.13 3.25.774.786 1.71 1.179 2.807 1.179s2.021-.393 2.774-1.18c.775-.785 1.162-1.858 1.162-3.217Z"/><path fill="url(#r)" d="M330.215 16.347c0 .51-.032 1.04-.097 1.593h-12.486c.086 1.105.441 1.954 1.065 2.55.645.573 1.43.86 2.355.86 1.377 0 2.334-.574 2.872-1.721h5.872a7.818 7.818 0 0 1-1.646 3.154c-.774.935-1.753 1.668-2.936 2.2-1.183.53-2.506.796-3.968.796-1.764 0-3.334-.372-4.711-1.116a7.983 7.983 0 0 1-3.226-3.186c-.774-1.38-1.162-2.995-1.162-4.843 0-1.849.377-3.463 1.13-4.844a7.977 7.977 0 0 1 3.226-3.186c1.377-.744 2.958-1.116 4.743-1.116 1.742 0 3.291.361 4.646 1.084a7.728 7.728 0 0 1 3.162 3.09c.774 1.339 1.161 2.9 1.161 4.685Zm-5.646-1.434c0-.935-.323-1.678-.968-2.23-.645-.553-1.452-.83-2.42-.83-.925 0-1.71.266-2.355.797-.624.531-1.011 1.286-1.161 2.263h6.904Z"/><path fill="url(#s)" d="m341.224 20.425 3.904-12.682H351l-6.388 17.78h-6.808l-6.388-17.78h5.904l3.904 12.682Z"/><defs><linearGradient id="a" x1="285.832" x2="267.49" y1="28.587" y2="-49.698" gradientUnits="userSpaceOnUse"><stop stop-color="#27AE60"/><stop offset=".255" stop-color="#2F80ED"/><stop offset=".51" stop-color="#9B51E0"/><stop offset=".75" stop-color="#EB5757"/><stop offset=".979" stop-color="#F2994A"/></linearGradient><linearGradient id="b" x1="285.832" x2="267.49" y1="28.587" y2="-49.698" gradientUnits="userSpaceOnUse"><stop stop-color="#27AE60"/><stop offset=".255" stop-color="#2F80ED"/><stop offset=".51" stop-color="#9B51E0"/><stop offset=".75" stop-color="#EB5757"/><stop offset=".979" stop-color="#F2994A"/></linearGradient><linearGradient id="c" x1="285.832" x2="267.49" y1="28.587" y2="-49.698" gradientUnits="userSpaceOnUse"><stop stop-color="#27AE60"/><stop offset=".255" stop-color="#2F80ED"/><stop offset=".51" stop-color="#9B51E0"/><stop offset=".75" stop-color="#EB5757"/><stop offset=".979" stop-color="#F2994A"/></linearGradient><linearGradient id="d" x1="285.832" x2="267.49" y1="28.587" y2="-49.698" gradientUnits="userSpaceOnUse"><stop stop-color="#27AE60"/><stop offset=".255" stop-color="#2F80ED"/><stop offset=".51" stop-color="#9B51E0"/><stop offset=".75" stop-color="#EB5757"/><stop offset=".979" stop-color="#F2994A"/></linearGradient><linearGradient id="e" x1="285.832" x2="267.49" y1="28.587" y2="-49.698" gradientUnits="userSpaceOnUse"><stop stop-color="#27AE60"/><stop offset=".255" stop-color="#2F80ED"/><stop offset=".51" stop-color="#9B51E0"/><stop offset=".75" stop-color="#EB5757"/><stop offset=".979" stop-color="#F2994A"/></linearGradient><linearGradient id="f" x1="285.832" x2="267.49" y1="28.587" y2="-49.698" gradientUnits="userSpaceOnUse"><stop stop-color="#27AE60"/><stop offset=".255" stop-color="#2F80ED"/><stop offset=".51" stop-color="#9B51E0"/><stop offset=".75" stop-color="#EB5757"/><stop offset=".979" stop-color="#F2994A"/></linearGradient><linearGradient id="g" x1="285.832" x2="267.49" y1="28.587" y2="-49.698" gradientUnits="userSpaceOnUse"><stop stop-color="#27AE60"/><stop offset=".255" stop-color="#2F80ED"/><stop offset=".51" stop-color="#9B51E0"/><stop offset=".75" stop-color="#EB5757"/><stop offset=".979" stop-color="#F2994A"/></linearGradient><linearGradient id="h" x1="285.832" x2="267.49" y1="28.587" y2="-49.698" gradientUnits="userSpaceOnUse"><stop stop-color="#27AE60"/><stop offset=".255" stop-color="#2F80ED"/><stop offset=".51" stop-color="#9B51E0"/><stop offset=".75" stop-color="#EB5757"/><stop offset=".979" stop-color="#F2994A"/></linearGradient><linearGradient id="i" x1="285.832" x2="267.49" y1="28.587" y2="-49.698" gradientUnits="userSpaceOnUse"><stop stop-color="#27AE60"/><stop offset=".255" stop-color="#2F80ED"/><stop offset=".51" stop-color="#9B51E0"/><stop offset=".75" stop-color="#EB5757"/><stop offset=".979" stop-color="#F2994A"/></linearGradient><linearGradient id="j" x1="285.832" x2="267.49" y1="28.587" y2="-49.698" gradientUnits="userSpaceOnUse"><stop stop-color="#27AE60"/><stop offset=".255" stop-color="#2F80ED"/><stop offset=".51" stop-color="#9B51E0"/><stop offset=".75" stop-color="#EB5757"/><stop offset=".979" stop-color="#F2994A"/></linearGradient><linearGradient id="k" x1="285.832" x2="267.49" y1="28.587" y2="-49.698" gradientUnits="userSpaceOnUse"><stop stop-color="#27AE60"/><stop offset=".255" stop-color="#2F80ED"/><stop offset=".51" stop-color="#9B51E0"/><stop offset=".75" stop-color="#EB5757"/><stop offset=".979" stop-color="#F2994A"/></linearGradient><linearGradient id="l" x1="285.832" x2="267.49" y1="28.587" y2="-49.698" gradientUnits="userSpaceOnUse"><stop stop-color="#27AE60"/><stop offset=".255" stop-color="#2F80ED"/><stop offset=".51" stop-color="#9B51E0"/><stop offset=".75" stop-color="#EB5757"/><stop offset=".979" stop-color="#F2994A"/></linearGradient><linearGradient id="m" x1="285.832" x2="267.49" y1="28.587" y2="-49.698" gradientUnits="userSpaceOnUse"><stop stop-color="#27AE60"/><stop offset=".255" stop-color="#2F80ED"/><stop offset=".51" stop-color="#9B51E0"/><stop offset=".75" stop-color="#EB5757"/><stop offset=".979" stop-color="#F2994A"/></linearGradient><linearGradient id="n" x1="285.832" x2="267.49" y1="28.587" y2="-49.698" gradientUnits="userSpaceOnUse"><stop stop-color="#27AE60"/><stop offset=".255" stop-color="#2F80ED"/><stop offset=".51" stop-color="#9B51E0"/><stop offset=".75" stop-color="#EB5757"/><stop offset=".979" stop-color="#F2994A"/></linearGradient><linearGradient id="o" x1="285.832" x2="267.49" y1="28.587" y2="-49.698" gradientUnits="userSpaceOnUse"><stop stop-color="#27AE60"/><stop offset=".255" stop-color="#2F80ED"/><stop offset=".51" stop-color="#9B51E0"/><stop offset=".75" stop-color="#EB5757"/><stop offset=".979" stop-color="#F2994A"/></linearGradient><linearGradient id="p" x1="285.832" x2="267.49" y1="28.587" y2="-49.698" gradientUnits="userSpaceOnUse"><stop stop-color="#27AE60"/><stop offset=".255" stop-color="#2F80ED"/><stop offset=".51" stop-color="#9B51E0"/><stop offset=".75" stop-color="#EB5757"/><stop offset=".979" stop-color="#F2994A"/></linearGradient><linearGradient id="q" x1="285.832" x2="267.49" y1="28.587" y2="-49.698" gradientUnits="userSpaceOnUse"><stop stop-color="#27AE60"/><stop offset=".255" stop-color="#2F80ED"/><stop offset=".51" stop-color="#9B51E0"/><stop offset=".75" stop-color="#EB5757"/><stop offset=".979" stop-color="#F2994A"/></linearGradient><linearGradient id="r" x1="285.832" x2="267.49" y1="28.587" y2="-49.698" gradientUnits="userSpaceOnUse"><stop stop-color="#27AE60"/><stop offset=".255" stop-color="#2F80ED"/><stop offset=".51" stop-color="#9B51E0"/><stop offset=".75" stop-color="#EB5757"/><stop offset=".979" stop-color="#F2994A"/></linearGradient><linearGradient id="s" x1="285.832" x2="267.49" y1="28.587" y2="-49.698" gradientUnits="userSpaceOnUse"><stop stop-color="#27AE60"/><stop offset=".255" stop-color="#2F80ED"/><stop offset=".51" stop-color="#9B51E0"/><stop offset=".75" stop-color="#EB5757"/><stop offset=".979" stop-color="#F2994A"/></linearGradient></defs></svg>