<svg xmlns="http://www.w3.org/2000/svg" width="256" height="75.093" fill="none" viewBox="0 0 497 99"><path fill="#fff" fill-rule="evenodd" d="M349.156 25.542v46.745h-14.325V25.542h14.325Zm-73.375 46.745L261.54 52.684v19.603h-14.325V10.296h14.325v34.262l14.157-19.016h17.676l-19.435 23.456 19.602 23.289h-17.759Zm-58.828.586c-4.3 0-8.153-.698-11.56-2.094s-6.143-3.463-8.21-6.2c-2.01-2.736-3.071-6.03-3.183-9.884h15.246c.224 2.178.978 3.853 2.262 5.026 1.285 1.117 2.96 1.676 5.027 1.676 2.122 0 3.797-.475 5.026-1.425 1.229-1.005 1.843-2.373 1.843-4.105 0-1.451-.503-2.652-1.508-3.602-.949-.95-2.15-1.73-3.602-2.345-1.396-.615-3.407-1.313-6.032-2.095-3.797-1.172-6.897-2.345-9.298-3.518-2.402-1.173-4.468-2.904-6.2-5.194-1.731-2.29-2.596-5.277-2.596-8.963 0-5.473 1.982-9.746 5.947-12.817 3.966-3.128 9.131-4.692 15.498-4.692 6.478 0 11.7 1.564 15.665 4.692 3.966 3.071 6.088 7.372 6.367 12.9h-15.498c-.111-1.898-.81-3.378-2.094-4.44-1.285-1.116-2.932-1.675-4.943-1.675-1.731 0-3.127.475-4.188 1.424-1.061.894-1.592 2.206-1.592 3.938 0 1.898.894 3.378 2.681 4.44 1.787 1.06 4.579 2.205 8.377 3.434 3.798 1.285 6.869 2.513 9.215 3.686 2.401 1.173 4.468 2.876 6.199 5.11 1.731 2.234 2.597 5.11 2.597 8.629 0 3.35-.866 6.394-2.597 9.13-1.675 2.737-4.133 4.915-7.372 6.535s-7.065 2.43-11.477 2.43Zm102.654-45.572c-2.513 1.453-4.607 3.463-6.283 6.032v-7.79h-14.325v46.744h14.325V50.59c0-3.854.894-6.534 2.681-8.042 1.787-1.564 4.468-2.346 8.042-2.346h3.937V25.04c-3.071 0-5.864.754-8.377 2.261Zm60.036-.418c-2.458 1.34-4.385 3.1-5.781 5.277v-6.618h-14.325V94.57h14.325V65.753c1.396 2.122 3.323 3.853 5.781 5.193 2.513 1.34 5.389 2.011 8.628 2.011 3.853 0 7.344-.977 10.471-2.932 3.128-2.01 5.585-4.83 7.372-8.461 1.843-3.686 2.765-7.93 2.765-12.733 0-4.803-.922-9.02-2.765-12.65-1.787-3.63-4.244-6.422-7.372-8.377-3.127-1.955-6.618-2.932-10.471-2.932-3.295 0-6.171.67-8.628 2.01Zm11.644 13.57c2.01 2.011 3.016 4.803 3.016 8.378 0 3.574-1.006 6.422-3.016 8.544-2.011 2.067-4.44 3.1-7.288 3.1-2.849 0-5.278-1.033-7.289-3.1-1.954-2.066-2.932-4.886-2.932-8.46 0-3.575.978-6.395 2.932-8.461 2.011-2.067 4.44-3.1 7.289-3.1 2.904 0 5.333 1.033 7.288 3.1Zm69.171 7.707c0 1.34-.084 2.737-.251 4.19h-32.42c.223 2.903 1.145 5.137 2.764 6.7 1.676 1.509 3.714 2.263 6.116 2.263 3.574 0 6.059-1.508 7.455-4.524h15.247c-.782 3.072-2.206 5.836-4.272 8.293-2.011 2.458-4.552 4.385-7.624 5.78-3.071 1.397-6.506 2.095-10.304 2.095-4.579 0-8.656-.977-12.23-2.932-3.575-1.955-6.367-4.747-8.377-8.377-2.011-3.63-3.016-7.875-3.016-12.734 0-4.858.977-9.103 2.932-12.733 2.01-3.63 4.803-6.422 8.377-8.377 3.574-1.955 7.679-2.932 12.314-2.932 4.524 0 8.545.95 12.064 2.848 3.518 1.9 6.254 4.608 8.209 8.126 2.011 3.519 3.016 7.623 3.016 12.315Zm-14.66-3.77c0-2.456-.838-4.411-2.513-5.863-1.676-1.452-3.77-2.178-6.283-2.178-2.402 0-4.44.698-6.115 2.094-1.62 1.396-2.625 3.379-3.016 5.948h17.927Zm42.825-17.089c-2.513 1.453-4.608 3.463-6.283 6.032v-7.79h-14.325v46.744h14.325V50.59c0-3.854.894-6.534 2.681-8.042 1.787-1.564 4.467-2.346 8.042-2.346H497V25.04c-3.072 0-5.864.754-8.377 2.261Z" clip-rule="evenodd"/><path fill="#fff" fill-rule="evenodd" d="M349.156 25.542v46.745h-14.325V25.542h14.325Zm-73.375 46.745L261.54 52.684v19.603h-14.325V10.296h14.325v34.262l14.157-19.016h17.676l-19.435 23.456 19.602 23.289h-17.759Zm-58.828.586c-4.3 0-8.153-.698-11.56-2.094s-6.143-3.463-8.21-6.2c-2.01-2.736-3.071-6.03-3.183-9.884h15.246c.224 2.178.978 3.853 2.262 5.026 1.285 1.117 2.96 1.676 5.027 1.676 2.122 0 3.797-.475 5.026-1.425 1.229-1.005 1.843-2.373 1.843-4.105 0-1.451-.503-2.652-1.508-3.602-.949-.95-2.15-1.73-3.602-2.345-1.396-.615-3.407-1.313-6.032-2.095-3.797-1.172-6.897-2.345-9.298-3.518-2.402-1.173-4.468-2.904-6.2-5.194-1.731-2.29-2.596-5.277-2.596-8.963 0-5.473 1.982-9.746 5.947-12.817 3.966-3.128 9.131-4.692 15.498-4.692 6.478 0 11.7 1.564 15.665 4.692 3.966 3.071 6.088 7.372 6.367 12.9h-15.498c-.111-1.898-.81-3.378-2.094-4.44-1.285-1.116-2.932-1.675-4.943-1.675-1.731 0-3.127.475-4.188 1.424-1.061.894-1.592 2.206-1.592 3.938 0 1.898.894 3.378 2.681 4.44 1.787 1.06 4.579 2.205 8.377 3.434 3.798 1.285 6.869 2.513 9.215 3.686 2.401 1.173 4.468 2.876 6.199 5.11 1.731 2.234 2.597 5.11 2.597 8.629 0 3.35-.866 6.394-2.597 9.13-1.675 2.737-4.133 4.915-7.372 6.535s-7.065 2.43-11.477 2.43Zm102.654-45.572c-2.513 1.453-4.607 3.463-6.283 6.032v-7.79h-14.325v46.744h14.325V50.59c0-3.854.894-6.534 2.681-8.042 1.787-1.564 4.468-2.346 8.042-2.346h3.937V25.04c-3.071 0-5.864.754-8.377 2.261Zm60.036-.418c-2.458 1.34-4.385 3.1-5.781 5.277v-6.618h-14.325V94.57h14.325V65.753c1.396 2.122 3.323 3.853 5.781 5.193 2.513 1.34 5.389 2.011 8.628 2.011 3.853 0 7.344-.977 10.471-2.932 3.128-2.01 5.585-4.83 7.372-8.461 1.843-3.686 2.765-7.93 2.765-12.733 0-4.803-.922-9.02-2.765-12.65-1.787-3.63-4.244-6.422-7.372-8.377-3.127-1.955-6.618-2.932-10.471-2.932-3.295 0-6.171.67-8.628 2.01Zm11.644 13.57c2.01 2.011 3.016 4.803 3.016 8.378 0 3.574-1.006 6.422-3.016 8.544-2.011 2.067-4.44 3.1-7.288 3.1-2.849 0-5.278-1.033-7.289-3.1-1.954-2.066-2.932-4.886-2.932-8.46 0-3.575.978-6.395 2.932-8.461 2.011-2.067 4.44-3.1 7.289-3.1 2.904 0 5.333 1.033 7.288 3.1Zm69.171 7.707c0 1.34-.084 2.737-.251 4.19h-32.42c.223 2.903 1.145 5.137 2.764 6.7 1.676 1.509 3.714 2.263 6.116 2.263 3.574 0 6.059-1.508 7.455-4.524h15.247c-.782 3.072-2.206 5.836-4.272 8.293-2.011 2.458-4.552 4.385-7.624 5.78-3.071 1.397-6.506 2.095-10.304 2.095-4.579 0-8.656-.977-12.23-2.932-3.575-1.955-6.367-4.747-8.377-8.377-2.011-3.63-3.016-7.875-3.016-12.734 0-4.858.977-9.103 2.932-12.733 2.01-3.63 4.803-6.422 8.377-8.377 3.574-1.955 7.679-2.932 12.314-2.932 4.524 0 8.545.95 12.064 2.848 3.518 1.9 6.254 4.608 8.209 8.126 2.011 3.519 3.016 7.623 3.016 12.315Zm-14.66-3.77c0-2.456-.838-4.411-2.513-5.863-1.676-1.452-3.77-2.178-6.283-2.178-2.402 0-4.44.698-6.115 2.094-1.62 1.396-2.625 3.379-3.016 5.948h17.927Zm42.825-17.089c-2.513 1.453-4.608 3.463-6.283 6.032v-7.79h-14.325v46.744h14.325V50.59c0-3.854.894-6.534 2.681-8.042 1.787-1.564 4.467-2.346 8.042-2.346H497V25.04c-3.072 0-5.864.754-8.377 2.261Z" clip-rule="evenodd"/><path fill="#33A9DC" d="M343.466 17.94c-.67 1.16-2.345 1.16-3.015 0l-5.386-9.328c-.67-1.161.168-2.612 1.508-2.612h10.771c1.34 0 2.178 1.45 1.508 2.612l-5.386 9.327Z"/><path stroke="#FFFCFC" stroke-width="10" d="M8.425 41.007a11.296 11.296 0 0 0-3.418 8.492 11.296 11.296 0 0 0 3.418 8.494l33.519 32.73A11.519 11.519 0 0 0 50.04 94a11.519 11.519 0 0 0 8.117-3.278l33.518-32.729c.132-.129.26-.26.385-.394.137-.121.271-.247.403-.375l25.485-24.885L135.525 49.5l-25.609 25.006a11.31 11.31 0 0 0 0 16.216c4.475 4.37 11.665 4.37 16.14 0l33.519-32.73a11.295 11.295 0 0 0 3.418-8.492 11.293 11.293 0 0 0-3.418-8.493l-33.519-32.73A11.517 11.517 0 0 0 117.949 5a11.52 11.52 0 0 0-8.107 3.278L76.324 41.007c-.132.129-.26.26-.385.394-.137.121-.271.247-.403.375L50.05 66.662 32.475 49.5l25.61-25.006a11.31 11.31 0 0 0 0-16.216c-4.476-4.37-11.666-4.37-16.141 0L8.425 41.007Z"/></svg>