<svg xmlns="http://www.w3.org/2000/svg" width="100" height="29.333" fill="none" viewBox="0 0 600 176"><path fill="#fff" fill-rule="evenodd" d="M307.266 39.36v92.493h-28.344V39.36h28.344Zm-145.187 92.493-28.178-38.788v38.788h-28.345V9.192h28.345v67.795l28.013-37.627h34.975l-38.456 46.412 38.787 46.081h-35.141Zm-116.4 1.16c-8.51 0-16.134-1.382-22.875-4.144-6.74-2.763-12.156-6.851-16.244-12.266-3.978-5.415-6.078-11.935-6.3-19.56H30.43c.442 4.31 1.934 7.625 4.475 9.946 2.542 2.21 5.857 3.315 9.946 3.315 4.199 0 7.514-.939 9.945-2.818 2.431-1.989 3.647-4.696 3.647-8.122 0-2.873-.995-5.249-2.984-7.128-1.878-1.878-4.254-3.425-7.127-4.64-2.763-1.216-6.741-2.598-11.935-4.145-7.514-2.32-13.647-4.641-18.399-6.962-4.752-2.32-8.84-5.746-12.266-10.277C2.305 61.682.592 55.77.592 48.476c0-10.83 3.923-19.283 11.77-25.36 7.845-6.189 18.067-9.283 30.664-9.283 12.82 0 23.151 3.094 30.997 9.282 7.846 6.078 12.045 14.587 12.598 25.527H55.956c-.221-3.757-1.603-6.686-4.144-8.785-2.542-2.21-5.802-3.315-9.78-3.315-3.426 0-6.188.939-8.288 2.818-2.1 1.768-3.15 4.365-3.15 7.79 0 3.757 1.769 6.686 5.305 8.785 3.536 2.1 9.061 4.365 16.576 6.796 7.514 2.542 13.592 4.973 18.233 7.294 4.752 2.32 8.84 5.69 12.266 10.111 3.426 4.42 5.139 10.111 5.139 17.073 0 6.63-1.713 12.653-5.139 18.068-3.315 5.414-8.177 9.724-14.587 12.929-6.409 3.204-13.979 4.807-22.708 4.807ZM248.798 42.84c-4.973 2.874-9.117 6.852-12.432 11.935V39.36h-28.344v92.493h28.344V88.921c0-7.625 1.768-12.929 5.304-15.913 3.537-3.094 8.841-4.64 15.913-4.64h7.791V38.364c-6.078 0-11.603 1.492-16.576 4.475Zm118.791-.828c-4.862 2.652-8.674 6.133-11.437 10.443V39.36h-28.345v136.584h28.345v-57.021c2.763 4.2 6.575 7.625 11.437 10.277 4.973 2.652 10.664 3.979 17.073 3.979 7.625 0 14.532-1.934 20.72-5.802 6.188-3.978 11.051-9.559 14.587-16.742 3.647-7.293 5.47-15.691 5.47-25.195 0-9.503-1.823-17.846-5.47-25.03-3.536-7.182-8.399-12.707-14.587-16.575-6.188-3.868-13.095-5.802-20.72-5.802-6.519 0-12.21 1.327-17.073 3.979Zm23.041 26.853c3.978 3.978 5.967 9.503 5.967 16.575 0 7.073-1.989 12.708-5.967 16.908-3.978 4.088-8.785 6.133-14.421 6.133-5.636 0-10.443-2.045-14.421-6.133-3.868-4.09-5.802-9.67-5.802-16.742 0-7.072 1.934-12.653 5.802-16.741 3.978-4.09 8.785-6.133 14.421-6.133 5.746 0 10.553 2.044 14.421 6.133Zm136.868 15.25c0 2.651-.166 5.414-.497 8.287h-64.149c.442 5.746 2.266 10.167 5.47 13.261 3.315 2.983 7.349 4.475 12.101 4.475 7.072 0 11.989-2.983 14.752-8.951h30.168c-1.547 6.078-4.365 11.548-8.454 16.41-3.978 4.863-9.006 8.675-15.084 11.438-6.077 2.762-12.874 4.144-20.388 4.144-9.061 0-17.128-1.934-24.201-5.802-7.072-3.868-12.597-9.393-16.575-16.576-3.979-7.183-5.968-15.581-5.968-25.195s1.934-18.012 5.802-25.195c3.978-7.183 9.503-12.708 16.576-16.576 7.072-3.868 15.194-5.802 24.366-5.802 8.951 0 16.907 1.88 23.869 5.636 6.962 3.758 12.377 9.117 16.245 16.079 3.978 6.962 5.967 15.084 5.967 24.366Zm-29.008-7.46c0-4.862-1.657-8.73-4.973-11.603-3.315-2.873-7.459-4.31-12.431-4.31-4.752 0-8.786 1.382-12.101 4.144-3.204 2.763-5.193 6.686-5.967 11.77h35.472Zm84.737-33.815c-4.972 2.874-9.116 6.852-12.431 11.935V39.36h-28.345v92.493h28.345V88.921c0-7.625 1.768-12.929 5.304-15.913 3.536-3.094 8.84-4.64 15.913-4.64h7.79V38.364c-6.078 0-11.603 1.492-16.576 4.475Z" clip-rule="evenodd"/><path fill="#33A9DC" d="M296.008 24.315c-1.326 2.297-4.641 2.297-5.967 0L279.386 5.86c-1.326-2.296.331-5.167 2.983-5.167h21.312c2.652 0 4.309 2.87 2.983 5.167l-10.656 18.456Z"/></svg>