<svg xmlns="http://www.w3.org/2000/svg" width="40" height="32" fill="none" viewBox="0 0 437 257"><path stroke="#FFFCFC" stroke-width="22" d="M19.349 107.435c-5.831 5.781-8.608 13.468-8.33 21.064-.278 7.596 2.498 15.284 8.33 21.066l89.005 88.245c5.526 5.479 12.753 8.209 19.973 8.19 7.236.03 14.482-2.699 20.02-8.19l89.006-88.245c.351-.348.691-.703 1.019-1.064a28.29 28.29 0 0 0 1.073-1.011l69.204-68.613L358.7 128.5l-69.852 69.255c-11.132 11.036-11.132 29.018 0 40.055 11.014 10.92 28.784 10.92 39.798 0l89.005-88.245c5.831-5.781 8.608-13.468 8.33-21.064.278-7.597-2.498-15.284-8.33-21.066L328.646 19.19c-5.532-5.485-12.769-8.215-19.997-8.19-7.229-.024-14.464 2.706-19.996 8.19l-89.006 88.245c-.351.348-.691.703-1.019 1.064a28.29 28.29 0 0 0-1.073 1.011l-69.204 68.613-50.05-49.623 69.851-69.255c11.132-11.036 11.132-29.019 0-40.055-11.014-10.92-28.784-10.92-39.798 0l-89.005 88.245Z"/></svg>