<svg xmlns="http://www.w3.org/2000/svg" width="16" height="32" fill="none" viewBox="0 0 20 20"><path fill="#FFF" d="M15 6.947c-.368.16-.763.27-1.178.318.424-.25.748-.646.902-1.117a4.16 4.16 0 0 1-1.304.49A2.06 2.06 0 0 0 11.923 6c-1.133 0-2.051.905-2.051 2.02 0 .158.018.312.053.46a5.854 5.854 0 0 1-4.228-2.11 1.982 1.982 0 0 0-.278 1.015c0 .7.363 1.32.913 1.681a2.076 2.076 0 0 1-.93-.253v.025a2.03 2.03 0 0 0 1.646 1.98c-.303.08-.62.092-.927.034a2.049 2.049 0 0 0 1.916 1.403A4.156 4.156 0 0 1 5 13.091c.94.595 2.031.91 3.144.909 3.774 0 5.837-3.078 5.837-5.748l-.007-.262c.402-.283.75-.636 1.026-1.043Z"/><path fill="#FFF" d="M4 2a2 2 0 0 0-2 2v12a2 2 0 0 0 2 2h12a2 2 0 0 0 2-2V4a2 2 0 0 0-2-2H4Zm0-2h12a4 4 0 0 1 4 4v12a4 4 0 0 1-4 4H4a4 4 0 0 1-4-4V4a4 4 0 0 1 4-4Z"/></svg>