<svg xmlns="http://www.w3.org/2000/svg" width="16" height="32" fill="none" viewBox="0 0 20 20"><path fill="#FFF" d="M12.923 6.526H7.077C5.93 6.526 5 7.446 5 8.58v2.89c0 1.135.93 2.054 2.077 2.054h5.846c1.147 0 2.077-.92 2.077-2.054V8.58c0-1.135-.93-2.054-2.077-2.054Zm-1.404 3.64-2.735 1.29a.11.11 0 0 1-.157-.1v-2.66a.11.11 0 0 1 .16-.096l2.734 1.37a.11.11 0 0 1 .059.098.11.11 0 0 1-.061.098Z"/><path fill="#FFF" d="M4 2a2 2 0 0 0-2 2v12a2 2 0 0 0 2 2h12a2 2 0 0 0 2-2V4a2 2 0 0 0-2-2H4Zm0-2h12a4 4 0 0 1 4 4v12a4 4 0 0 1-4 4H4a4 4 0 0 1-4-4V4a4 4 0 0 1 4-4Z"/></svg>